<svg width="430" height="72" viewBox="0 0 430 72" fill="none" xmlns="http://www.w3.org/2000/svg">
<path d="M0 71.7419V63.0347H0.385905V71.7419L0.257671 71.9999L0 71.7419ZM0.257671 71.9999H0V71.7419L0.257671 71.9999ZM8.83031 71.9999H0.257671V71.6135H8.83031H8.95855L8.83031 71.9999ZM8.95855 71.6135L9.98324 71.9999H8.8363L8.95855 71.6135ZM2.56352 69.1751L8.95975 71.6123L8.8363 71.9999L2.44008 69.4331L2.31184 69.3047L2.56352 69.1751ZM2.43409 69.4331H2.31064L2.31184 69.3047L2.43409 69.4331ZM0.385905 63.0347L2.69176 69.1751L2.31184 69.3035L0 63.1631V63.0347H0.385905ZM0 63.0347V61.8743L0.385905 63.0347H0Z" fill="black"/>
<path d="M71.5221 71.7419V63.0347H71.914V71.7419L71.6504 71.9999L71.5221 71.7419ZM71.914 71.7419V71.9999H71.6504L71.914 71.7419ZM62.9555 71.6135H71.6516L71.6504 71.9999H62.9555V71.6135ZM62.9555 71.9999H61.932L62.9555 71.6135V71.9999ZM69.48 69.4331L63.0837 71.9999L62.9555 71.6135L69.3517 69.1763L69.6094 69.3047L69.48 69.4331ZM69.6022 69.3047V69.4331H69.4788L69.6022 69.3047ZM71.914 63.1643L69.6022 69.3047L69.2223 69.1871L71.5221 63.0347H71.9081V63.1631L71.914 63.1643ZM71.5221 63.0347L71.914 61.8743V63.0347H71.5221Z" fill="black"/>
<path d="M0.385905 0.258V8.8416H0V0.258L0.257671 0L0.385905 0.258ZM0 0.258V0H0.257671L0 0.258ZM8.83031 0.3864H0.257671V0H8.83031L8.95855 0.3864H8.83031ZM8.83031 0H9.98324L8.95855 0.3864L8.83031 0ZM2.43409 2.4372L8.83031 0L8.95855 0.3864L2.56233 2.8176L2.30465 2.5656L2.43409 2.4372ZM2.31184 2.5668V2.4372H2.43409L2.31184 2.5668ZM0 8.8416L2.31184 2.5668L2.69176 2.6904L0.385905 8.9712L0 8.8416ZM0.385905 8.9712L0 9.9912V8.8428L0.385905 8.9712Z" fill="black"/>
<path d="M71.9141 0.258V8.8416H71.5222V0.258L71.6505 0L71.9141 0.258ZM71.6505 0H71.9141V0.258L71.6505 0ZM62.9556 0H71.6505L71.6517 0.3864H62.9556V0ZM62.9556 0.3864L61.9309 0H62.9556V0.3864ZM69.3506 2.8188L62.9556 0.3864L63.0838 0L69.4801 2.4372L69.6035 2.5656L69.3506 2.8188ZM69.4801 2.4372H69.6035V2.5656L69.4801 2.4372ZM71.5222 8.9712L69.2224 2.6964L69.6083 2.568L71.9141 8.8428L71.5222 8.9712ZM71.9141 8.8416V9.99L71.5222 8.9712L71.9141 8.8416Z" fill="black"/>
<path d="M24.7016 63.6684L33.2683 65.0868L33.14 65.4624L24.5734 64.056V63.9276L24.7016 63.6684ZM17.5324 58.8048L24.6956 63.6684L24.5722 63.9264L17.4041 59.0628H17.2759L17.5324 58.8048ZM17.2759 59.0628L16.5077 58.032L17.5312 58.806L17.2759 59.0628ZM23.291 66.75L17.2759 59.0628L17.6546 58.8048L23.6757 66.492L23.5475 66.8784L23.291 66.75ZM23.5475 66.8784H23.4205L23.297 66.75L23.5475 66.8784ZM33.2683 65.4612L23.5487 66.8796L23.4205 66.4932L33.14 65.0868H33.2683V65.4612ZM33.2683 65.0868L34.5494 65.3316L33.2683 65.4612V65.0868Z" fill="black"/>
<path d="M48.4948 5.24958L54.6334 12.9428L54.2534 13.1948L48.2371 5.37798L48.3654 5.12598L48.4948 5.24958ZM48.3654 5.12598H48.4948V5.24958L48.3654 5.12598ZM38.6398 6.40398L48.3654 5.12598V5.50758L38.768 6.79038H38.6398V6.40398ZM38.6398 6.79038L37.3646 6.66678L38.6398 6.40398V6.79038ZM47.2196 8.33118L38.647 6.79038L38.7704 6.40398L47.2208 7.94478H47.3443L47.2196 8.33118ZM54.2534 13.1948L47.0902 8.33118L47.3431 7.94478L54.5099 12.9428H54.6334L54.2534 13.1948ZM54.6334 12.9428L55.4004 13.9676L54.2534 13.1936L54.6334 12.9428Z" fill="black"/>
<path d="M8.32218 24.7257L6.78335 33.3093L6.39744 33.1809L7.93627 24.5973L8.32218 24.7257ZM13.1844 17.5545L8.32098 24.7269L7.93507 24.5985L12.9267 17.4261V17.2977L13.1844 17.5545ZM12.9267 17.2965L13.9502 16.5225L13.1832 17.5533L12.9267 17.2965ZM5.24931 23.3205L12.9267 17.2917L13.1844 17.6781L5.37754 23.7021L5.11987 23.5737L5.24931 23.3205ZM5.12107 23.5725V23.4489L5.24931 23.3205L5.12107 23.5725ZM6.39624 33.3105L5.12107 23.5725L5.50698 23.4489L6.78215 33.1809V33.3045H6.39624V33.3105ZM6.78215 33.3105L6.65391 34.5933L6.39624 33.3105H6.78215Z" fill="black"/>
<path d="M66.6649 48.5504L58.9875 54.5744L58.7298 54.3164L66.4012 48.2924L66.7931 48.4208L66.6649 48.5504ZM66.7943 48.422V48.5504H66.6661L66.7943 48.422ZM65.3837 38.6888L66.7943 48.422L66.4072 48.4208L65.0026 38.6888H65.3837ZM64.9978 38.6888L65.2555 37.406L65.3837 38.6888H64.9978ZM63.5932 47.2736L64.9978 38.6888L65.3837 38.8136L63.9731 47.2748L63.8497 47.4032L63.5932 47.2736ZM63.9731 47.2748V47.402L63.8497 47.4032L63.9731 47.2748ZM58.7298 54.3164L63.5932 47.144L63.8509 47.402L58.9875 54.5744L58.7298 54.3164ZM58.9875 54.5744L57.964 55.4768L58.731 54.3164L58.9875 54.5744Z" fill="black"/>
<path d="M8.4505 47.5307L13.4361 54.7031L13.0562 54.9611L8.19283 47.7887L8.06459 47.6603L8.4505 47.5307ZM8.19283 47.7887H8.06939V47.6603L8.19283 47.7887ZM6.91167 39.0755L8.4505 47.6591H8.07058L6.52576 39.2039V39.0755H6.91167ZM6.52576 39.0755L6.654 37.7927L6.91167 39.0755H6.52576ZM5.24939 48.8087L6.52456 39.0767L6.91047 39.2051L5.6353 48.8087L5.37763 49.0667L5.24939 48.8087ZM5.37763 49.0667L5.25059 48.9383V48.8099L5.37763 49.0667ZM13.1844 54.9611L5.37763 49.0667L5.6353 48.6803L13.4421 54.5747V54.7031L13.1844 54.9611ZM13.4421 54.7031L14.2091 55.7339L13.1856 54.9599L13.4421 54.7031Z" fill="black"/>
<path d="M66.5363 23.1912L65.3834 32.7948H64.9975L66.1504 23.0628L66.5363 22.9344V23.1912ZM66.5363 22.9344L66.6646 23.0616L66.5363 23.1912V22.9344ZM58.7295 17.0388L66.5363 22.9344L66.2787 23.3196L58.4778 17.2956L58.7295 17.0388ZM58.4778 17.2956L57.7108 16.272L58.7295 17.04L58.4778 17.2956ZM63.4635 24.3456L58.4778 17.2956L58.7295 17.0388L63.7211 24.216L63.4635 24.3456ZM64.9975 32.9244L63.3352 24.3468L63.7211 24.2184L65.3834 32.7948L64.9975 32.9244ZM65.3834 32.7948L65.2552 34.0836L64.9975 32.9244L65.3834 32.7948Z" fill="black"/>
<path d="M47.4714 63.5389L54.6347 58.5469L54.8923 58.8049L47.7291 63.7969H47.6009L47.4714 63.5389ZM39.027 65.0857L47.5997 63.4213L47.6009 63.7969L39.1493 65.4613H39.0258L39.027 65.0857ZM39.0258 65.4613L37.7458 65.3329L39.027 65.0857L39.0258 65.4613ZM48.7526 66.6217L39.0258 65.4613L39.027 65.0857L48.7526 66.2341L48.876 66.6205H48.7526V66.6217ZM54.8911 58.8049L48.8808 66.6217L48.6231 66.3637L54.51 58.5469H54.6335L54.8911 58.8049ZM54.6335 58.5469L55.6629 57.7729L54.8899 58.8037L54.6335 58.5469Z" fill="black"/>
<path d="M23.1616 5.24976L32.8872 6.53256L32.7589 6.91896L23.0334 5.63616L22.9051 5.37816L23.1616 5.24976ZM22.9051 5.37816L23.0334 5.24976H23.1568L22.9051 5.37816ZM17.017 13.195L22.9051 5.37816L23.2898 5.63616L17.2735 13.453L17.017 13.195ZM17.2735 13.453L16.2512 14.221L17.0182 13.1962L17.2735 13.453ZM24.444 8.45496L17.2759 13.453L17.0182 13.0666L24.1863 8.06856L24.444 8.45496ZM32.8884 6.92016L24.3157 8.45496L24.1863 8.07456L32.7601 6.53376H32.8884V6.92016ZM32.8884 6.53376L34.1695 6.66696L32.8884 6.91896V6.53376Z" fill="black"/>
<path d="M35.7022 61.8755L34.421 53.6723H34.8069L36.0821 61.8755H35.7022ZM36.0821 61.8755L35.9551 63.0359L35.7022 61.8755H36.0821ZM37.4927 53.6831L36.0881 61.8863H35.7022L37.1068 53.6831L37.4927 53.5547V53.6831ZM36.7269 52.1483L37.4927 53.5547L37.108 53.8127L36.341 52.4063V52.2779L36.7269 52.1483ZM37.4927 40.8695L36.7257 52.2779H36.341L37.1068 40.8695H37.4927ZM36.0833 38.0507L37.4879 40.8695L37.108 40.9979L35.7034 38.3087V38.0507H36.0833ZM35.7034 38.0507L35.9599 37.6643L36.0881 38.0507H35.7034ZM34.421 40.8695L35.7034 38.0507L36.0881 38.3087L34.8069 40.9979L34.421 40.8695ZM35.188 52.2659L34.421 40.8695H34.8069L35.5739 52.2659V52.3943L35.188 52.2659ZM34.421 53.5547L35.188 52.1483L35.5739 52.4063L34.8069 53.8127L34.421 53.6843V53.5547Z" fill="black"/>
<path d="M36.0833 10.1196L34.8081 18.3228H34.4222L35.7034 10.1196H36.0833ZM35.7034 10.1196L35.9599 8.84277L36.0881 10.1196H35.7034ZM37.1068 18.3228L35.7034 10.1196H36.0881L37.4927 18.3228V18.4512L37.1068 18.3228ZM36.3398 19.5996L37.1068 18.1932L37.4927 18.4512L36.7257 19.734H36.3398V19.5996ZM37.1068 31.002L36.3398 19.734L36.7257 19.6056L37.4927 31.008V31.1316L37.1068 31.002ZM35.7022 33.6972L37.1068 31.002L37.4927 31.1304L36.0881 33.8256H35.7022V33.6972ZM36.0833 33.8256L35.9551 34.206L35.7022 33.8256H36.0833ZM34.8069 31.002L36.0821 33.6972L35.7022 33.8256L34.421 31.1304V31.002H34.8069ZM35.5739 19.728L34.8069 31.002H34.421L35.188 19.5996H35.5739V19.728ZM34.8069 18.1932L35.5739 19.5996L35.188 19.728L34.421 18.4512L34.4222 18.3228L34.8069 18.1932Z" fill="black"/>
<path d="M60.6497 36.1285L52.8489 37.5349L52.7206 37.1545L60.5215 35.7421H60.6497V36.1285ZM60.6497 35.7421L61.6732 36.0001L60.6497 36.1285V35.7421ZM52.8489 34.3357L60.6497 35.7421L60.5215 36.1285L52.7206 34.7221V34.3357H52.8489ZM51.31 35.2321L52.7206 34.3357L52.8441 34.7161L51.5689 35.6125H51.4407L51.31 35.2321ZM40.694 34.3357L51.4383 35.2321V35.6185L40.5658 34.7221V34.3357H40.694ZM37.874 35.7421L40.5658 34.3357L40.6892 34.7221L38.1317 36.1285H37.874V35.7421ZM37.874 36.1285L37.6163 36.0001L37.874 35.7421V36.1285ZM40.5658 37.5349L37.88 36.1285L38.1317 35.7421L40.6952 37.1545V37.5349H40.5658ZM51.4383 36.7681L40.694 37.5349L40.5658 37.1557L51.4383 36.3877H51.5665L51.4383 36.7681ZM52.7194 37.5349L51.3088 36.7669L51.5665 36.3865L52.8477 37.2769V37.5349H52.7194ZM52.8489 37.5349L52.7206 37.6633L52.7194 37.5349H52.8489Z" fill="black"/>
<path d="M11.3878 35.7421L19.1947 37.1545L19.0712 37.5349L11.2644 36.1285V35.7421H11.3878ZM11.2644 36.1285L10.1127 36.0001L11.2644 35.7421V36.1285ZM19.1947 34.7233L11.3878 36.1297L11.2644 35.7421L19.0712 34.3369H19.1947V34.7233ZM20.3476 35.6137L18.943 34.7173L19.1947 34.3369L20.4758 35.2333V35.6137H20.3476ZM31.2201 34.7233L20.4758 35.6197L20.3476 35.2333L31.2201 34.3369H31.3483L31.2201 34.7233ZM33.7776 36.1285L31.0978 34.7221L31.3495 34.3357L33.9071 35.7421V36.1285H33.7776ZM33.9071 35.7421L34.2918 36.0001L33.9071 36.1285V35.7421ZM31.0966 37.1545L33.7764 35.7421L33.9047 36.1285L31.3471 37.5349H31.2189L31.0966 37.1545ZM20.4758 36.3865L31.2261 37.1545V37.5349L20.3476 36.7669V36.3865H20.4758ZM18.943 37.2769L20.3476 36.3865L20.4758 36.7669L19.1947 37.5349H19.0664L18.943 37.2769ZM19.1947 37.5349V37.6633L19.0712 37.5349H19.1947Z" fill="black"/>
<path d="M18.3056 54.1873L22.9053 47.4025L23.2912 47.5309L18.6855 54.4453L18.3056 54.1873ZM18.6855 54.4453L17.662 55.0897L18.3056 54.1873L18.6855 54.4453ZM25.0817 49.5817L18.6855 54.4453L18.4278 54.0589L24.824 49.3249L25.2099 49.5829L25.0817 49.5817ZM25.5911 47.9185L25.2099 49.5829L24.8252 49.4545L25.2111 47.9197V47.7913L25.5911 47.9185ZM33.6543 40.6117L25.4676 48.0469L25.2099 47.7901L33.3967 40.3537L33.7766 40.4821L33.6543 40.6117ZM33.7766 40.4821L33.7778 40.6105L33.6543 40.6117L33.7766 40.4821ZM34.679 37.5349L33.7766 40.4821L33.3979 40.3585L34.2991 37.4053L34.4226 37.2817L34.679 37.5349ZM34.4214 37.2769L34.8073 37.1533L34.679 37.5349L34.4214 37.2769ZM31.6062 38.3029L34.4214 37.2769L34.5496 37.6645L31.7344 38.6893L31.4767 38.3029H31.6062ZM24.4441 47.0161L31.4767 38.3029L31.8638 38.5609L24.7006 47.2741H24.5724L24.4441 47.0161ZM23.0335 47.2741L24.5724 46.8877V47.2741L23.1558 47.6605L22.9053 47.4025L23.0335 47.2741ZM22.9053 47.4025V47.2741H23.0335L22.9053 47.4025Z" fill="black"/>
<path d="M53.4865 17.8128L46.9621 22.6764L46.8338 22.29L53.23 17.556L53.4865 17.8128ZM53.2289 17.5548L54.1241 16.7808L53.4865 17.8056L53.2289 17.5548ZM48.6243 24.3456L53.23 17.556L53.4877 17.8128L49.0114 24.5976L48.8832 24.726L48.6243 24.3456ZM49.0042 24.5976H48.8808V24.726L49.0042 24.5976ZM47.2197 24.5976L48.7526 24.3456L48.8808 24.726L47.342 24.984L47.2185 24.726V24.5976H47.2197ZM40.0505 33.3108L47.2137 24.7272L47.4714 24.9852L40.3082 33.5628V33.6972L40.0505 33.3108ZM37.3647 34.2072L40.1799 33.3048L40.3082 33.6912L37.493 34.5876L37.2353 34.3296L37.3647 34.2072ZM37.493 34.5936L37.1071 34.7172L37.2353 34.3368L37.493 34.5936ZM38.5177 31.518L37.6224 34.4652L37.2365 34.3368L38.1317 31.3896L38.5177 31.518ZM46.7044 24.2172L38.3834 31.6464L38.1317 31.3884L46.4467 23.8296L46.7044 24.0876V24.2172ZM47.0903 22.5468L46.7044 24.0876L46.3245 23.9592L46.7044 22.4184L46.8326 22.2948L47.0903 22.5468ZM46.7044 22.4184V22.29H46.8338L46.7044 22.4184Z" fill="black"/>
<path d="M53.229 54.4456L46.8328 49.582L46.961 49.324L53.4855 54.058V54.1864L53.229 54.4456ZM53.4867 54.1876L54.1242 55.09L53.229 54.4456L53.4867 54.1876ZM49.0044 47.4028L53.4867 54.1876L53.229 54.4456L48.6233 47.5312L48.875 47.2732L49.0044 47.4028ZM47.3421 46.8868L48.881 47.2744L48.7527 47.6596L47.2199 47.2732L47.3421 46.8868ZM40.3083 38.3032L47.4716 47.0164L47.2139 47.2744L40.0506 38.5612L40.3083 38.3032ZM37.4931 37.2772L40.3083 38.3032L40.1801 38.6884L37.3649 37.6636L37.2366 37.5352L37.4931 37.2772ZM37.2366 37.5352L37.1084 37.1548L37.4943 37.2784L37.2366 37.5352ZM38.1319 40.4824L37.2366 37.5352L37.6165 37.4068L38.5118 40.36L38.1319 40.612V40.4824ZM46.4529 48.0472L38.1319 40.612L38.3896 40.354L46.7045 47.7892V47.9068L46.4529 48.0472ZM46.7045 49.582L46.3246 47.9176H46.7045L47.0904 49.4524L46.8328 49.582H46.7045Z" fill="black"/>
<path d="M18.6855 17.555L23.2972 24.3458L22.9053 24.5978L18.3056 17.813L18.6855 17.555ZM18.3056 17.813L17.662 16.7822L18.6855 17.555L18.3056 17.813ZM24.824 22.6754L18.4278 17.8118L18.6855 17.555L25.0817 22.2878L25.2099 22.4162L24.824 22.6754ZM25.0817 22.2878L25.2099 22.289V22.4162L25.0817 22.2878ZM25.2099 24.0878L24.824 22.547L25.2099 22.4186L25.5899 23.9594L25.2099 24.2174V24.0878ZM33.3967 31.6406L25.2099 24.2114L25.4676 23.831L33.6543 31.3898H33.7778L33.3967 31.6406ZM34.2979 34.4654L33.3967 31.5182L33.7778 31.3898L34.6778 34.337L34.4202 34.595L34.2979 34.4654ZM34.679 34.3358L34.8073 34.7222L34.4214 34.5938L34.679 34.3358ZM31.7356 33.311L34.5508 34.2074L34.4214 34.5938L31.6074 33.6974L31.4791 33.563L31.7356 33.311ZM31.6074 33.6974H31.4779L31.4791 33.563L31.6074 33.6974ZM24.7018 24.7262L31.865 33.3098L31.4791 33.563L24.4453 24.9842L24.5736 24.5978L24.7018 24.7262ZM23.1618 24.3458L24.5736 24.5978L24.5724 24.9842L23.0335 24.7262L22.9053 24.5978L23.1618 24.3458Z" fill="black"/>
<path d="M46.7043 15.3755L44.0185 17.2979L43.7609 16.9115L46.4466 14.9891H46.7043V15.3755ZM46.4526 14.9879H46.5761H46.7043H46.4526ZM48.3666 16.2719L46.4466 15.3755L46.7043 14.9891L48.6243 15.8855V16.1435L48.3666 16.2719ZM48.6243 15.8843H48.7525L48.6243 16.1435V15.8843ZM45.6796 22.6751L48.2372 16.0127L48.6231 16.1411L46.0655 22.8035V22.9319L45.6796 22.6751ZM38.5176 30.3635L45.6808 22.6763L46.0667 22.9331L38.8987 30.6215L38.5188 30.4931V30.3635H38.5176ZM38.8987 30.6215L38.5176 31.0019V30.4919L38.8987 30.6215ZM38.8975 19.7279V30.4919H38.5176V19.7279V19.5995L38.8975 19.7279ZM41.5833 13.0727L38.8975 19.7351L38.5176 19.6067L41.2033 12.9443L41.461 12.8159L41.5833 13.0727ZM41.2033 12.9443V12.6851L41.461 12.8135L41.2033 12.9443ZM43.2455 13.9691L41.2033 13.1951L41.461 12.8135L43.375 13.5827L43.5032 13.7111L43.2455 13.9691ZM43.6314 17.1683L43.1221 13.8407L43.502 13.7123L44.1396 17.0399L44.0162 17.2979L43.6314 17.1683ZM44.0185 17.2967L43.7609 17.4251L43.6326 17.1671L44.0185 17.2967Z" fill="black"/>
<path d="M25.4674 14.9881L28.1471 17.0389L27.8955 17.2969L25.2097 15.3745V14.9881H25.4674ZM25.2097 14.9881H25.3379H25.4614H25.2097ZM23.2909 15.8845L25.2097 14.9881L25.3391 15.3745L23.4192 16.2709L23.1555 16.1425L23.2909 15.8845ZM23.1615 16.1425V15.8845H23.2957L23.1615 16.1425ZM25.8485 22.8049L23.1615 16.1425L23.5486 16.0141L26.2344 22.6765L25.8485 22.9345V22.8049ZM33.0105 30.6217L25.8485 22.9345L26.1049 22.6765L33.2682 30.3637L33.3964 30.4921L33.0105 30.6217ZM33.3964 30.4921V31.0021L33.0105 30.6217L33.3964 30.4921ZM33.3964 19.7281V30.4921H33.0105V19.7281L33.3964 19.5997V19.7281ZM30.7107 12.9433L33.3964 19.5997L33.0105 19.7281L30.3248 13.0657L30.453 12.8137L30.7107 12.9433ZM30.453 12.8137L30.5812 12.6865L30.7095 12.9445L30.453 12.8137ZM28.5342 13.5817L30.459 12.8137L30.5824 13.1941L28.6685 13.9681L28.4048 13.7101L28.5342 13.5817ZM27.7672 17.0389L28.4048 13.7101L28.7967 13.8349L28.1531 17.1685L27.8955 17.2921L27.7672 17.0389ZM28.1483 17.1685V17.4265L27.8967 17.2981L28.1483 17.1685Z" fill="black"/>
<path d="M46.4527 56.8822L43.761 54.9598L44.0186 54.7018L46.7044 56.6242V56.8822H46.4527ZM46.7044 56.8822L46.5762 57.0106L46.4527 56.8822H46.7044ZM48.6244 56.1214L46.7044 56.8822L46.4467 56.497L48.3667 55.735L48.6244 55.8634V56.1214ZM48.6244 55.8634L48.7526 55.9918L48.6244 56.1202V55.8634ZM46.0668 49.0666L48.6244 55.8634L48.3667 55.981L45.6809 49.1962L46.0668 49.0666ZM38.8976 41.3782L46.0656 49.0654L45.6797 49.3234L38.5165 41.6362V41.5078L38.8976 41.3782ZM38.5165 41.5078L38.5177 40.9978L38.8976 41.3782L38.5165 41.5078ZM38.5177 52.2658L38.5165 41.5078H38.8976V52.2658H38.5177ZM41.2034 59.0626L38.5177 52.2778L38.8976 52.1494L41.5834 58.9342L41.4599 59.1922L41.2034 59.0626ZM41.4611 59.191L41.2034 59.3194V59.0614L41.4611 59.191ZM43.3751 58.2886L41.4611 59.191L41.2034 58.8046L43.2456 58.0306L43.5033 58.159L43.3751 58.2886ZM43.5033 58.159V58.2886H43.3751L43.5033 58.159ZM44.1409 54.8314L43.5033 58.159H43.1234L43.6327 54.8314L44.0186 54.7018L44.1409 54.8314ZM43.6315 54.8314L43.7598 54.445L44.0174 54.703L43.6315 54.8314Z" fill="black"/>
<path d="M25.2098 56.6254L27.8956 54.703L28.1473 54.961L25.4675 56.8834H25.2098V56.6254ZM25.4675 56.8834L25.3393 57.0106L25.211 56.8822L25.4675 56.8834ZM23.4193 55.7338L25.3393 56.4958L25.211 56.8822L23.2971 56.1202L23.1629 55.8622L23.4193 55.7338ZM23.2911 56.1214L23.1569 55.993V55.8646L23.2911 56.1214ZM26.2345 49.195L23.5488 55.9918L23.1629 55.8634L25.8486 49.0666L26.2345 49.195ZM33.2683 41.6362L26.1051 49.3234L25.8474 49.0654L33.0107 41.3782L33.3966 41.5066L33.2683 41.6362ZM33.0107 41.3782L33.3966 40.9978V41.5066L33.0107 41.3782ZM33.0107 52.2658V41.5078L33.3966 41.5066V52.2658H33.0107ZM30.3249 58.933L33.0107 52.1482L33.3966 52.2658L30.7108 59.0626L30.4531 59.1802L30.3249 58.933ZM30.7108 59.0626L30.5826 59.191H30.4591L30.7108 59.0626ZM28.6626 57.9022L30.5826 58.8046L30.4543 59.191L28.5344 58.2886L28.4062 58.1602L28.6626 57.9022ZM28.5344 58.2886H28.4062V58.1602L28.5344 58.2886ZM28.1485 54.8314L28.7921 58.159L28.4062 58.1602L27.7686 54.8314L27.892 54.703L28.1485 54.8314ZM27.8968 54.703L28.1485 54.445V54.8314L27.8968 54.703Z" fill="black"/>
<path d="M55.5286 47.274L53.7381 44.4492L53.9958 44.1912L55.9205 47.016V47.1444L55.5286 47.274ZM54.7628 49.0668L55.5298 47.016L55.9157 47.1444L55.1487 49.1952L54.891 49.3236L54.7628 49.0668ZM55.1487 49.1952L55.0205 49.4532L54.8922 49.3248L55.1487 49.1952ZM48.6243 46.254L55.0205 48.9372L54.8922 49.3248L48.3678 46.6404V46.512L48.6243 46.254ZM41.3328 38.6892L48.6243 46.242L48.3666 46.5L41.0751 39.0756L41.2033 38.6892H41.3328ZM41.0751 39.0756L40.6952 38.6892H41.2033L41.0751 39.0756ZM51.4383 39.0756H41.2033V38.6892H51.4383H51.5665L51.4383 39.0756ZM57.7062 41.8944L51.31 39.0756L51.5665 38.6892L57.9639 41.508L58.0922 41.766L57.7062 41.8944ZM57.9627 41.508H58.091V41.766L57.9627 41.508ZM56.811 43.5588L57.7062 41.6364L58.0922 41.766L57.1969 43.8156H57.0687L56.811 43.5588ZM53.8676 44.0748L57.0687 43.4304V43.8156L53.8676 44.5908L53.7393 44.4504L53.8676 44.0748ZM53.7381 44.4492L53.4864 44.1912L53.8664 44.0736L53.7381 44.4492Z" fill="black"/>
<path d="M55.9204 24.9841L53.9956 27.6733L53.738 27.5449L55.5285 24.7261H55.9144V24.9841H55.9204ZM55.9204 24.7261V24.8545V24.9841V24.7261ZM55.1486 22.6753L55.9204 24.7261L55.5297 24.8545L54.7627 22.8037L54.8909 22.5457L55.1486 22.6753ZM54.8909 22.5457L55.0191 22.5469L55.1474 22.6753L54.8909 22.5457ZM48.3664 25.3657L54.8909 22.5457L55.0143 22.9333L48.6241 25.7461L48.3664 25.3657ZM41.075 32.9245L48.3664 25.3717L48.6241 25.7521L41.3326 33.1813L41.2044 33.3049L41.075 32.9245ZM41.2032 33.3109H40.6938L41.075 32.9245L41.2032 33.3109ZM51.4381 33.3109H41.2032V32.9245L51.4381 32.7961L51.5664 33.1825L51.4381 33.3109ZM57.9626 30.4921L51.5675 33.1813L51.3087 32.9233L57.7049 30.1045L58.0908 30.2329L57.9626 30.4921ZM58.092 30.2341V30.3625L57.9638 30.4909L58.092 30.2341ZM57.1968 28.1833L58.092 30.2341L57.7061 30.3625L56.8108 28.3177L57.0685 28.0537L57.1968 28.1833ZM57.0673 28.0549H57.1956L57.1968 28.1833L57.0673 28.0549ZM53.8674 27.4165L57.0685 28.0537V28.4413L53.8674 27.7969L53.7392 27.5449L53.8674 27.4165ZM53.8674 27.7969H53.4875L53.7392 27.5449L53.8674 27.7969Z" fill="black"/>
<path d="M15.9938 47.0157L17.7843 44.1909L18.1702 44.4489L16.3797 47.2737L15.9938 47.1453V47.0157ZM16.7608 49.1949L15.9938 47.1453L16.3797 47.0157L17.1467 49.0665L17.0185 49.3245L16.7608 49.1949ZM17.0185 49.3245L16.8938 49.4529L16.7596 49.1949L17.0185 49.3245ZM23.4195 46.6401L17.0233 49.3233L16.895 48.9369L23.2972 46.2537L23.5489 46.5117L23.4195 46.6401ZM23.5489 46.4997V46.6281H23.4207L23.5489 46.4997ZM30.8404 39.0753L23.5489 46.5117L23.2912 46.2525L30.5827 38.6877H30.711L30.8404 39.0753ZM30.711 38.6877L31.0969 38.6889L30.8404 39.0753L30.711 38.6877ZM20.476 38.6889L30.711 38.6877V39.0753H20.476L20.3478 38.6889H20.476ZM13.9516 41.5077L20.3478 38.6889L20.476 39.0753L14.0798 41.8881L13.8221 41.7645L13.9516 41.5077ZM13.8221 41.7645V41.5077H13.9516L13.8221 41.7645ZM14.5892 43.8165L13.8221 41.7645L14.2081 41.6373L14.9751 43.5597L14.7174 43.8177L14.5892 43.8165ZM17.9185 44.5893L14.7174 43.8153L14.8456 43.4289L18.0467 44.0733L18.1702 44.4489L17.9185 44.5893ZM18.0479 44.0745L18.3056 44.1921L18.1774 44.4501L18.0479 44.0745Z" fill="black"/>
<path d="M16.3797 24.7263L18.1702 27.5451L17.7843 27.6687L15.9938 24.9855V24.7275H16.3797V24.7263ZM15.9938 24.9855V24.8559V24.7275V24.9855ZM17.1467 22.8051L16.3797 24.8559L15.9998 24.7275L16.7668 22.6767L17.0245 22.5483L17.1467 22.8051ZM16.7608 22.6755L16.895 22.5471H17.0185L16.7608 22.6755ZM23.2912 25.7523L16.895 22.9335L17.0185 22.5471L23.4207 25.3719H23.5489L23.2912 25.7523ZM30.5827 33.1815L23.2972 25.7523L23.5477 25.3659L30.8404 32.9247L30.7122 33.3051L30.5827 33.1815ZM30.8404 32.9247L31.0981 33.3111H30.7122L30.8404 32.9247ZM20.476 32.7951L30.711 32.9235V33.3099H20.476L20.3478 33.1815L20.476 32.7951ZM20.476 33.3111H20.3478V33.1827L20.476 33.3111ZM14.0798 30.1059L20.476 32.9247L20.3478 33.1827L13.9516 30.4935L13.8233 30.2355L14.0798 30.1059ZM13.9516 30.4935L13.8233 30.3639V30.2355L13.9516 30.4935ZM14.9751 28.3191L14.2081 30.3639L13.8221 30.2355L14.5892 28.1847L14.7174 28.0563L14.9751 28.3191ZM18.0479 27.7971L14.8468 28.4415L14.7186 28.0551L17.9197 27.4167L18.1774 27.5451L18.0479 27.7971ZM18.1702 27.5451L18.2984 27.7971H18.0408L18.1702 27.5451Z" fill="black"/>
<path d="M156.375 71.1319H110.578C110.046 71.1319 109.729 70.8151 109.729 70.2883C109.729 69.8551 110.046 69.4327 110.578 69.4327H113.346C114.733 69.4327 115.904 68.3659 115.904 66.9715V5.02148C115.904 3.74468 114.733 2.56628 113.346 2.56628H110.578C110.046 2.56628 109.729 2.14388 109.729 1.71668C109.729 1.18388 110.046 0.861084 110.578 0.861084H130.281C130.813 0.861084 131.135 1.18388 131.135 1.71668C131.135 2.14388 130.813 2.56628 130.281 2.56628H127.512C126.126 2.56628 124.955 3.74348 124.955 5.02148V66.9727C124.955 68.2615 126.126 69.4339 127.512 69.4339H141.679C149.878 69.4339 154.776 63.0355 154.776 55.3591V53.4367C154.776 52.8979 155.099 52.5811 155.631 52.5811C156.163 52.5811 156.374 52.8979 156.374 53.4367L156.375 71.1319Z" fill="black"/>
<path d="M226.663 71.1323H202.698C202.271 71.1323 201.85 70.8155 201.85 70.2887C201.85 69.8555 202.271 69.4331 202.698 69.4331H206.531C208.24 69.4331 209.409 68.3663 209.409 66.9719C209.409 66.6551 209.304 66.2339 209.087 65.6951L202.486 48.4211H175.329L168.616 65.6951C168.511 66.2339 168.405 66.6563 168.405 66.8675C168.405 68.4731 169.471 69.4343 171.174 69.4343H175.006C175.538 69.4343 175.861 69.8567 175.861 70.2899C175.861 70.8167 175.538 71.1335 175.006 71.1335H159.248C158.821 71.1335 158.393 70.8167 158.393 70.2899C158.393 69.8567 158.82 69.4343 159.248 69.4343H161.805C164.468 69.4343 165.849 68.2619 166.703 65.6963L192.047 0.434326H194.071L219.1 65.8019C220.165 68.2631 221.869 69.4343 224.32 69.4343H226.66C227.192 69.4343 227.514 69.8567 227.514 70.2899C227.516 70.8167 227.195 71.1323 226.663 71.1323ZM201.955 46.8275L189.069 13.0199L175.966 46.8275H201.955Z" fill="black"/>
<path d="M259.245 71.1319H232.197C231.659 71.1319 231.344 70.8151 231.344 70.2883C231.344 69.8551 231.659 69.4327 232.197 69.4327H234.96C236.564 69.4327 237.524 68.2603 237.524 66.9715V5.02148C237.524 3.74468 236.564 2.56628 234.96 2.56628H232.197C231.659 2.56628 231.344 2.14388 231.344 1.71668C231.344 1.18388 231.659 0.861084 232.197 0.861084H257.009C264.255 0.861084 270.211 2.24948 274.799 5.02148C279.48 7.68788 281.821 12.0583 281.821 17.9239C281.821 26.4547 275.537 33.0703 263.61 34.7755C278.52 35.5195 286.399 41.0623 286.399 51.6211C286.398 64.1011 276.391 71.1319 259.245 71.1319ZM246.569 34.3471H256.577C265.097 34.3471 272.237 27.5215 272.237 18.2455C272.237 8.75348 267.227 2.56628 256.471 2.56628H249.134C247.529 2.56628 246.569 3.74348 246.569 5.02148V34.3471ZM258.601 36.0523H246.569V66.9727C246.569 68.2615 247.74 69.4339 249.134 69.4339H258.601C270.538 69.4339 276.811 62.1799 276.811 51.6211C276.811 42.2335 270.211 36.0523 258.601 36.0523Z" fill="black"/>
<path d="M329.642 71.7765C309.723 71.7765 297.691 56.0973 297.691 35.6241C297.691 15.0465 309.618 0.22168 329.642 0.22168C349.445 0.22168 361.594 15.0465 361.594 35.6241C361.595 56.0973 349.446 71.7765 329.642 71.7765ZM346.567 11.4201C343.056 5.12728 337.415 2.03368 329.644 2.03368C321.862 2.03368 316.221 5.12728 312.603 11.4201C309.082 17.7129 307.279 25.7109 307.279 35.6253C307.279 45.5397 309.082 53.7537 312.603 60.2577C316.221 66.7617 321.862 69.9609 329.644 69.9609C337.31 69.9609 342.951 66.7617 346.463 60.2577C350.091 53.7537 351.893 45.5385 351.893 35.6253C351.893 25.7121 350.091 17.7129 346.567 11.4201Z" fill="black"/>
<path d="M428.576 2.56628H425.801C424.21 2.56628 423.25 3.74348 423.25 5.02148V71.1331H418.989L377.347 9.92589V66.9727C377.347 68.2615 378.307 69.4339 379.899 69.4339H382.673C383.198 69.4339 383.527 69.8563 383.527 70.2895C383.527 70.8163 383.199 71.1331 382.673 71.1331H370.208C369.683 71.1331 369.365 70.8163 369.365 70.2895C369.365 69.8563 369.683 69.4339 370.208 69.4339H372.982C374.574 69.4339 375.534 68.2615 375.534 66.9727V5.02148C375.534 3.74468 374.574 2.56628 372.982 2.56628H370.208C369.683 2.56628 369.365 2.14388 369.365 1.71668C369.365 1.18388 369.683 0.861084 370.208 0.861084H381.819L421.438 58.9807V5.02148C421.438 3.74468 420.478 2.56628 418.886 2.56628H416.112C415.587 2.56628 415.258 2.14388 415.258 1.71668C415.258 1.18388 415.586 0.861084 416.112 0.861084H428.577C429.102 0.861084 429.43 1.18388 429.43 1.71668C429.429 2.14388 429.102 2.56628 428.576 2.56628Z" fill="black"/>
</svg>
