<svg width="152" height="152" viewBox="0 0 152 152" fill="none" xmlns="http://www.w3.org/2000/svg">
<path d="M2.53052 143.431V127.152H3.34228V143.431L3.07253 143.914L2.53052 143.431ZM3.07253 143.914H2.53052V143.431L3.07253 143.914ZM21.1053 143.914H3.07253V143.191H21.1053H21.3751L21.1053 143.914ZM21.3751 143.191L23.5305 143.914H21.1179L21.3751 143.191ZM7.92296 138.632L21.3776 143.189L21.1179 143.914L7.66329 139.115L7.39354 138.875L7.92296 138.632ZM7.65068 139.115H7.39102L7.39354 138.875L7.65068 139.115ZM3.34228 127.152L8.1927 138.632L7.39354 138.872L2.53052 127.392V127.152H3.34228ZM2.53052 127.152V124.982L3.34228 127.152H2.53052Z" fill="#FFDEB3"/>
<path d="M145.599 143.431V127.152H146.423V143.431L145.868 143.914L145.599 143.431ZM146.423 143.431V143.914H145.868L146.423 143.431ZM127.576 143.191H145.871L145.868 143.914H127.576V143.191ZM127.576 143.914H125.423L127.576 143.191V143.914ZM141.302 139.115L127.846 143.914L127.576 143.191L141.033 138.635L141.575 138.875L141.302 139.115ZM141.559 138.875V139.115H141.3L141.559 138.875ZM146.423 127.394L141.559 138.875L140.76 138.655L145.599 127.152H146.41V127.392L146.423 127.394ZM145.599 127.152L146.423 124.982V127.152H145.599Z" fill="#FFDEB3"/>
<path d="M3.34228 3.67081V19.7077H2.53052V3.67081L3.07253 3.18878L3.34228 3.67081ZM2.53052 3.67081V3.18878H3.07253L2.53052 3.67081ZM21.1053 3.9107H3.07253V3.18878H21.1053L21.3751 3.9107H21.1053ZM21.1053 3.18878H23.5305L21.3751 3.9107L21.1053 3.18878ZM7.65068 7.74224L21.1053 3.18878L21.3751 3.9107L7.92044 8.45294L7.37842 7.98213L7.65068 7.74224ZM7.39354 7.98437V7.74224H7.65068L7.39354 7.98437ZM2.53052 19.7077L7.39354 7.98437L8.1927 8.21529L3.34228 19.9498L2.53052 19.7077ZM3.34228 19.9498L2.53052 21.8555V19.7099L3.34228 19.9498Z" fill="#FFDEB3"/>
<path d="M146.421 3.6708V19.7076H145.596V3.6708L145.866 3.18878L146.421 3.6708ZM145.866 3.18878H146.421V3.6708L145.866 3.18878ZM127.576 3.18878H145.866L145.869 3.91069H127.576V3.18878ZM127.576 3.91069L125.421 3.18878H127.576V3.91069ZM141.028 8.45515L127.576 3.91069L127.846 3.18878L141.301 7.74221L141.56 7.9821L141.028 8.45515ZM141.301 7.74221H141.56V7.9821L141.301 7.74221ZM145.596 19.9497L140.759 8.22647L141.57 7.98658L146.421 19.7098L145.596 19.9497ZM146.421 19.7076V21.8531L145.596 19.9497L146.421 19.7076Z" fill="#FFDEB3"/>
<path d="M52.0911 127.877L69.6596 130.508L69.3966 131.205L51.8281 128.596V128.358L52.0911 127.877ZM37.3884 118.853L52.0788 127.877L51.8256 128.355L37.1254 119.332H36.8624L37.3884 118.853ZM36.8624 119.332L35.287 117.419L37.386 118.855L36.8624 119.332ZM49.1982 133.594L36.8624 119.332L37.6391 118.853L49.9872 133.116L49.7242 133.832L49.1982 133.594ZM49.7242 133.832H49.4637L49.2105 133.594L49.7242 133.832ZM69.6596 131.203L49.7267 133.835L49.4637 133.118L69.3966 130.508H69.6596V131.203ZM69.6596 130.508L72.287 130.963L69.6596 131.203V130.508Z" fill="#FFDEB3"/>
<path d="M99.5071 13.5089L112.1 27.7821L111.321 28.2497L98.9784 13.7471L99.2415 13.2796L99.5071 13.5089ZM99.2415 13.2796H99.5071V13.5089L99.2415 13.2796ZM79.2897 15.6507L99.2415 13.2796V13.9876L79.5528 16.3676H79.2897V15.6507ZM79.2897 16.3676L76.6737 16.1382L79.2897 15.6507V16.3676ZM96.8911 19.2262L79.3044 16.3676L79.5577 15.6507L96.8935 18.5093H97.1468L96.8911 19.2262ZM111.321 28.2497L96.6255 19.2262L97.1443 18.5093L111.847 27.7821H112.1L111.321 28.2497ZM112.1 27.7821L113.674 29.6834L111.321 28.2474L112.1 27.7821Z" fill="#FFDEB3"/>
<path d="M19.5803 51.4055L16.2692 67.8265L15.4389 67.5809L18.7499 51.1599L19.5803 51.4055ZM30.0421 37.6866L19.5777 51.4078L18.7473 51.1622L29.4877 37.4409V37.1953L30.0421 37.6866ZM29.4877 37.193L31.6899 35.7123L30.0396 37.6843L29.4877 37.193ZM12.9684 48.7173L29.4877 37.1838L30.0421 37.923L13.2444 49.4473L12.6899 49.2017L12.9684 48.7173ZM12.6925 49.1994V48.9629L12.9684 48.7173L12.6925 49.1994ZM15.4363 67.8288L12.6925 49.1994L13.5229 48.9629L16.2666 67.5809V67.8173H15.4363V67.8288ZM16.2666 67.8288L15.9907 70.2829L15.4363 67.8288H16.2666Z" fill="#FFDEB3"/>
<path d="M136.271 98.1396L119.751 109.664L119.197 109.17L135.703 97.646L136.546 97.8917L136.271 98.1396ZM136.549 97.894V98.1396H136.273L136.549 97.894ZM133.514 79.2737L136.549 97.894L135.716 97.8917L132.694 79.2737H133.514ZM132.684 79.2737L133.238 76.8196L133.514 79.2737H132.684ZM129.661 95.697L132.684 79.2737L133.514 79.5125L130.479 95.6993L130.213 95.9449L129.661 95.697ZM130.479 95.6993V95.9426L130.213 95.9449L130.479 95.6993ZM119.197 109.17L129.661 95.4491L130.216 95.9426L119.751 109.664L119.197 109.17ZM119.751 109.664L117.549 111.39L119.199 109.17L119.751 109.664Z" fill="#FFDEB3"/>
<path d="M19.735 96.2057L30.3075 109.924L29.5019 110.418L19.1886 96.6992L18.9167 96.4536L19.735 96.2057ZM19.1886 96.6992H18.9268V96.4536L19.1886 96.6992ZM16.4718 80.0338L19.735 96.4513H18.9294L15.6534 80.2793V80.0338H16.4718ZM15.6534 80.0338L15.9254 77.5802L16.4718 80.0338H15.6534ZM12.9468 98.6501L15.6509 80.0361L16.4693 80.2817L13.7651 98.6501L13.2187 99.1436L12.9468 98.6501ZM13.2187 99.1436L12.9493 98.898V98.6524L13.2187 99.1436ZM29.7738 110.418L13.2187 99.1436L13.7651 98.4045L30.3202 109.679V109.924L29.7738 110.418ZM30.3202 109.924L31.9468 111.896L29.7764 110.415L30.3202 109.924Z" fill="#FFDEB3"/>
<path d="M135.775 48.4499L133.329 66.8145H132.51L134.956 48.2044L135.775 47.9589V48.4499ZM135.775 47.9589L136.047 48.2021L135.775 48.4499V47.9589ZM119.209 36.6849L135.775 47.9589L135.228 48.6955L118.675 37.176L119.209 36.6849ZM118.675 37.176L117.047 35.2186L119.209 36.6872L118.675 37.176ZM129.255 50.6574L118.675 37.176L119.209 36.6849L129.801 50.4096L129.255 50.6574ZM132.51 67.0623L128.982 50.6597L129.801 50.4142L133.329 66.8145L132.51 67.0623ZM133.329 66.8145L133.057 69.279L132.51 67.0623L133.329 66.8145Z" fill="#FFDEB3"/>
<path d="M97.5139 127.607L112.306 118.345L112.839 118.824L98.046 128.086H97.7812L97.5139 127.607ZM80.0756 130.477L97.7787 127.389L97.7812 128.086L80.3281 131.174H80.0731L80.0756 130.477ZM80.0731 131.174L77.4299 130.936L80.0756 130.477L80.0731 131.174ZM100.16 133.327L80.0731 131.174L80.0756 130.477L100.16 132.608L100.414 133.325H100.16V133.327ZM112.836 118.824L100.424 133.327L99.8923 132.848L112.049 118.345H112.304L112.836 118.824ZM112.304 118.345L114.43 116.909L112.834 118.821L112.304 118.345Z" fill="#FFDEB3"/>
<path d="M49.0475 13.5229L69.1301 15.905L68.8653 16.6225L48.7827 14.2404L48.5179 13.7613L49.0475 13.5229ZM48.5179 13.7613L48.7827 13.5229H49.0376L48.5179 13.7613ZM36.3594 28.2766L48.5179 13.7613L49.3123 14.2404L36.889 28.7557L36.3594 28.2766ZM36.889 28.7557L34.7781 30.1818L36.3619 28.2788L36.889 28.7557ZM51.6955 19.4747L36.894 28.7557L36.3619 28.0382L51.1634 18.7572L51.6955 19.4747ZM69.1326 16.6247L51.4307 19.4747L51.1634 18.7684L68.8678 15.9072H69.1326V16.6247ZM69.1326 15.9072L71.7781 16.1545L69.1326 16.6225V15.9072Z" fill="#FFDEB3"/>
<path d="M73.7515 124.031L70.833 108.207H71.7121L74.6169 124.031H73.7515ZM74.6169 124.031L74.3276 126.269L73.7515 124.031H74.6169ZM77.8303 108.228L74.6306 124.051H73.7515L76.9512 108.228L77.8303 107.98V108.228ZM76.0857 105.267L77.8303 107.98L76.9539 108.478L75.2066 105.765V105.517L76.0857 105.267ZM77.8303 83.5102L76.083 105.517H75.2066L76.9512 83.5102H77.8303ZM74.6197 78.0728L77.8194 83.5102L76.9539 83.7579L73.7542 78.5705V78.0728H74.6197ZM73.7542 78.0728L74.3385 77.3275L74.6306 78.0728H73.7542ZM70.833 83.5102L73.7542 78.0728L74.6306 78.5705L71.7121 83.7579L70.833 83.5102ZM72.5803 105.494L70.833 83.5102H71.7121L73.4594 105.494V105.741L72.5803 105.494ZM70.833 107.98L72.5803 105.267L73.4594 105.765L71.7121 108.478L70.833 108.23V107.98Z" fill="#FFDEB3"/>
<path d="M74.6211 23.0579L71.7152 38.8816H70.8357L73.7554 23.0579H74.6211ZM73.7554 23.0579L74.3398 20.595L74.6321 23.0579H73.7554ZM76.9536 38.8816L73.7554 23.0579H74.6321L77.833 38.8816V39.1293L76.9536 38.8816ZM75.2056 41.3446L76.9536 38.6317L77.833 39.1293L76.0851 41.6038H75.2056V41.3446ZM76.9536 63.3395L75.2056 41.6038L76.0851 41.3561L77.833 63.3511V63.5895L76.9536 63.3395ZM73.7526 68.5385L76.9536 63.3395L77.833 63.5872L74.6321 68.7862H73.7526V68.5385ZM74.6211 68.7862L74.3289 69.5199L73.7526 68.7862H74.6211ZM71.7124 63.3395L74.6184 68.5385L73.7526 68.7862L70.833 63.5872V63.3395H71.7124ZM73.4604 41.5922L71.7124 63.3395H70.833L72.581 41.3446H73.4604V41.5922ZM71.7124 38.6317L73.4604 41.3446L72.581 41.5922L70.833 39.1293L70.8357 38.8816L71.7124 38.6317Z" fill="#FFDEB3"/>
<path d="M124.089 73.7652L108.199 76.1109L107.938 75.4765L123.827 73.1207H124.089V73.7652ZM124.089 73.1207L126.173 73.5511L124.089 73.7652V73.1207ZM108.199 70.775L124.089 73.1207L123.827 73.7652L107.938 71.4195V70.775H108.199ZM105.065 72.2701L107.938 70.775L108.19 71.4095L105.592 72.9046H105.331L105.065 72.2701ZM83.4419 70.775L105.326 72.2701V72.9146L83.1807 71.4195V70.775H83.4419ZM77.6981 73.1207L83.1807 70.775L83.4322 71.4195L78.2229 73.7652H77.6981V73.1207ZM77.6981 73.7652L77.1732 73.5511L77.6981 73.1207V73.7652ZM83.1807 76.1109L77.7103 73.7652L78.2229 73.1207L83.4444 75.4765V76.1109H83.1807ZM105.326 74.832L83.4419 76.1109L83.1807 75.4785L105.326 74.1975H105.588L105.326 74.832ZM107.936 76.1109L105.063 74.83L105.588 74.1955L108.197 75.6806V76.1109H107.936ZM108.199 76.1109L107.938 76.3251L107.936 76.1109H108.199Z" fill="#FFDEB3"/>
<path d="M25.1815 73.1207L41.0023 75.4765L40.7522 76.1109L24.9313 73.7652V73.1207H25.1815ZM24.9313 73.7652L22.5973 73.5511L24.9313 73.1207V73.7652ZM41.0023 71.4215L25.1815 73.7672L24.9313 73.1207L40.7522 70.777H41.0023V71.4215ZM43.3388 72.9066L40.4923 71.4115L41.0023 70.777L43.5987 72.2721V72.9066H43.3388ZM65.3724 71.4215L43.5987 72.9166L43.3388 72.2721L65.3724 70.777H65.6323L65.3724 71.4215ZM70.5554 73.7652L65.1247 71.4195L65.6347 70.775L70.8177 73.1207V73.7652H70.5554ZM70.8177 73.1207L71.5973 73.5511L70.8177 73.7652V73.1207ZM65.1222 75.4765L70.5529 73.1207L70.8128 73.7652L65.6299 76.1109H65.37L65.1222 75.4765ZM43.5987 74.1955L65.3846 75.4765V76.1109L43.3388 74.83V74.1955H43.5987ZM40.4923 75.6806L43.3388 74.1955L43.5987 74.83L41.0023 76.1109H40.7425L40.4923 75.6806ZM41.0023 76.1109V76.3251L40.7522 76.1109H41.0023Z" fill="#FFDEB3"/>
<path d="M38.8909 108.901L48.2807 95.9244L49.0685 96.1699L39.6665 109.395L38.8909 108.901ZM39.6665 109.395L37.5771 110.627L38.8909 108.901L39.6665 109.395ZM52.7236 100.092L39.6665 109.395L39.1405 108.656L52.1976 99.6012L52.9854 100.095L52.7236 100.092ZM53.7634 96.9113L52.9854 100.095L52.2 99.8491L52.9878 96.9136V96.668L53.7634 96.9113ZM70.2236 82.9359L53.5114 97.1569L52.9854 96.6657L69.6976 82.4425L70.4731 82.6881L70.2236 82.9359ZM70.4731 82.6881L70.4756 82.9336L70.2236 82.9359L70.4731 82.6881ZM72.3154 77.0511L70.4731 82.6881L69.7 82.4517L71.5398 76.8032L71.7918 76.5668L72.3154 77.0511ZM71.7894 76.5576L72.5771 76.3212L72.3154 77.0511L71.7894 76.5576ZM66.0425 78.52L71.7894 76.5576L72.0511 77.299L66.3043 79.2591L65.7783 78.52H66.0425ZM51.422 95.1853L65.7783 78.52L66.5685 79.0135L51.9456 95.6788H51.6838L51.422 95.1853ZM48.5425 95.6788L51.6838 94.9397V95.6788L48.792 96.4178L48.2807 95.9244L48.5425 95.6788ZM48.2807 95.9244V95.6788H48.5425L48.2807 95.9244Z" fill="#FFDEB3"/>
<path d="M109.851 38.194L96.4317 47.4964L96.168 46.7573L109.323 37.7028L109.851 38.194ZM109.321 37.7005L111.162 36.2202L109.851 38.1802L109.321 37.7005ZM99.8506 50.689L109.323 37.7028L109.853 38.194L100.647 51.171L100.383 51.4165L99.8506 50.689ZM100.632 51.171H100.378V51.4165L100.632 51.171ZM96.9617 51.171L100.114 50.689L100.378 51.4165L97.2131 51.91L96.9592 51.4165V51.171H96.9617ZM82.2163 67.8363L96.9494 51.4188L97.4793 51.9123L82.7463 68.3182V68.5753L82.2163 67.8363ZM76.6923 69.5508L82.4825 67.8248L82.7463 68.5638L76.9561 70.2783L76.4261 69.7849L76.6923 69.5508ZM76.9561 70.2898L76.1624 70.5262L76.4261 69.7986L76.9561 70.2898ZM79.0636 64.4073L77.2223 70.0442L76.4286 69.7986L78.2699 64.1617L79.0636 64.4073ZM95.9018 50.4434L78.7875 64.6528L78.2699 64.1594L95.3718 49.702L95.9018 50.1955V50.4434ZM96.6955 47.2485L95.9018 50.1955L95.1204 49.9499L95.9018 47.0029L96.1655 46.7665L96.6955 47.2485ZM95.9018 47.0029V46.7573H96.168L95.9018 47.0029Z" fill="#FFDEB3"/>
<path d="M109.323 109.395L96.1669 100.092L96.4307 99.599L109.851 108.653V108.899L109.323 109.395ZM109.853 108.901L111.165 110.627L109.323 109.395L109.853 108.901ZM100.634 95.9244L109.853 108.901L109.323 109.395L99.8498 96.17L100.367 95.6765L100.634 95.9244ZM97.2146 94.9375L100.38 95.6788L100.116 96.4156L96.9631 95.6765L97.2146 94.9375ZM82.7467 78.5201L97.4808 95.1854L96.9508 95.6788L82.2167 79.0135L82.7467 78.5201ZM76.9561 76.5577L82.7467 78.5201L82.4829 79.2568L76.6923 77.2968L76.4286 77.0512L76.9561 76.5577ZM76.4286 77.0512L76.1648 76.3236L76.9586 76.56L76.4286 77.0512ZM78.27 82.6881L76.4286 77.0512L77.21 76.8056L79.0515 82.454L78.27 82.936V82.6881ZM95.3855 97.1569L78.27 82.936L78.8 82.4425L95.9031 96.6634V96.8884L95.3855 97.1569ZM95.9031 100.092L95.1217 96.909H95.9031L96.6969 99.8446L96.1669 100.092H95.9031Z" fill="#FFDEB3"/>
<path d="M39.6665 37.7006L49.0807 50.6891L48.2807 51.1711L38.8909 38.1941L39.6665 37.7006ZM38.8909 38.1941L37.5771 36.2225L39.6665 37.7006L38.8909 38.1941ZM52.1976 47.4942L39.1405 38.1918L39.6665 37.7006L52.7236 46.7529L52.9854 46.9985L52.1976 47.4942ZM52.7236 46.7529L52.9854 46.7552V46.9985L52.7236 46.7529ZM52.9854 50.1957L52.1976 47.2486L52.9854 47.003L53.7609 49.9501L52.9854 50.4435V50.1957ZM69.6976 64.6416L52.9854 50.4321L53.5114 49.7045L70.2236 64.1619H70.4756L69.6976 64.6416ZM71.5374 70.0445L69.6976 64.4075L70.4756 64.1619L72.3129 69.7989L71.7869 70.2924L71.5374 70.0445ZM72.3154 69.7966L72.5771 70.5357L71.7894 70.2901L72.3154 69.7966ZM66.3067 67.8365L72.0536 69.551L71.7894 70.2901L66.0449 68.5756L65.7831 68.3185L66.3067 67.8365ZM66.0449 68.5756H65.7807L65.7831 68.3185L66.0449 68.5756ZM51.948 51.4167L66.5709 67.8342L65.7831 68.3185L51.4245 51.9102L51.6863 51.1711L51.948 51.4167ZM48.8043 50.6891L51.6863 51.1711L51.6838 51.9102L48.5425 51.4167L48.2807 51.1711L48.8043 50.6891Z" fill="#FFDEB3"/>
<path d="M95.759 33.3072L90.2483 36.9863L89.7196 36.2468L95.2303 32.5677H95.759V33.3072ZM95.2426 32.5654H95.4959H95.759H95.2426ZM99.1696 35.0228L95.2303 33.3072L95.759 32.5677L99.6983 34.2833V34.777L99.1696 35.0228ZM99.6983 34.281H99.9614L99.6983 34.777V34.281ZM93.6565 47.2773L98.904 34.5267L99.6959 34.7724L94.4483 47.523V47.7687L93.6565 47.2773ZM78.9614 61.9914L93.659 47.2796L94.4508 47.771L79.7434 62.4851L78.9639 62.2394V61.9914H78.9614ZM79.7434 62.4851L78.9614 63.2132V62.2371L79.7434 62.4851ZM79.7409 41.6369V62.2371H78.9614V41.6369V41.3912L79.7409 41.6369ZM85.2516 28.9001L79.7409 41.6507L78.9614 41.4049L84.4721 28.6544L85.0008 28.4087L85.2516 28.9001ZM84.4721 28.6544V28.1583L85.0008 28.4041L84.4721 28.6544ZM88.6622 30.6157L84.4721 29.1344L85.0008 28.4041L88.9278 29.8762L89.1909 30.1219L88.6622 30.6157ZM89.454 36.7383L88.409 30.3699L89.1885 30.1242L90.4967 36.4926L90.2434 36.9863L89.454 36.7383ZM90.2483 36.984L89.7196 37.2298L89.4565 36.736L90.2483 36.984Z" fill="#FFDEB3"/>
<path d="M53.2192 32.5655L58.7143 36.4903L58.1982 36.9841L52.6908 33.305V32.5655H53.2192ZM52.6908 32.5655H52.9538H53.2069H52.6908ZM48.7562 34.281L52.6908 32.5655L52.9562 33.305L49.0192 35.0205L48.4785 34.7748L48.7562 34.281ZM48.4908 34.7748V34.281H48.7661L48.4908 34.7748ZM54.0007 47.5253L48.4908 34.7748L49.2846 34.5291L54.792 47.2796L54.0007 47.7734V47.5253ZM68.6872 62.4852L54.0007 47.7734L54.5266 47.2796L69.2156 61.9914L69.4785 62.2371L68.6872 62.4852ZM69.4785 62.2371V63.2132L68.6872 62.4852L69.4785 62.2371ZM69.4785 41.6369V62.2371H68.6872V41.6369L69.4785 41.3912V41.6369ZM63.9711 28.6522L69.4785 41.3912L68.6872 41.6369L63.1797 28.8864L63.4427 28.4041L63.9711 28.6522ZM63.4427 28.4041L63.7057 28.1607L63.9686 28.6545L63.4427 28.4041ZM59.5081 29.8739L63.455 28.4041L63.7081 29.1322L59.7834 30.6134L59.2427 30.1197L59.5081 29.8739ZM57.9353 36.4903L59.2427 30.1197L60.0463 30.3585L58.7266 36.7384L58.1982 36.9749L57.9353 36.4903ZM58.7168 36.7384V37.2321L58.2007 36.9864L58.7168 36.7384Z" fill="#FFDEB3"/>
<path d="M95.2408 114.289L89.7185 110.61L90.2471 110.116L95.7571 113.795V114.289H95.2408ZM95.7571 114.289L95.4941 114.535L95.2408 114.289H95.7571ZM99.696 112.833L95.7571 114.289L95.2285 113.552L99.1674 112.094L99.696 112.339V112.833ZM99.696 112.339L99.9591 112.585L99.696 112.831V112.339ZM94.4491 99.3316L99.696 112.339L99.1674 112.565L93.6574 99.5796L94.4491 99.3316ZM79.741 84.6174L94.4466 99.3293L93.6549 99.8231L78.9591 85.1111V84.8654L79.741 84.6174ZM78.9591 84.8654L78.9616 83.8893L79.741 84.6174L78.9591 84.8654ZM78.9616 105.454L78.9591 84.8654H79.741V105.454H78.9616ZM84.4716 118.462L78.9616 105.477L79.741 105.232L85.251 118.216L84.9977 118.71L84.4716 118.462ZM85.0002 118.708L84.4716 118.954V118.46L85.0002 118.708ZM88.9268 116.981L85.0002 118.708L84.4716 117.968L88.6613 116.487L89.1899 116.733L88.9268 116.981ZM89.1899 116.733V116.981H88.9268L89.1899 116.733ZM90.4979 110.364L89.1899 116.733H88.4105L89.4554 110.364L90.2471 110.116L90.4979 110.364ZM89.453 110.364L89.716 109.625L90.2447 110.119L89.453 110.364Z" fill="#FFDEB3"/>
<path d="M52.6912 113.792L58.1992 110.113L58.7154 110.607L53.2196 114.285H52.6912V113.792ZM53.2196 114.285L52.9566 114.529L52.6936 114.283L53.2196 114.285ZM49.0191 112.086L52.9566 113.544L52.6936 114.283L48.7684 112.825L48.4931 112.331L49.0191 112.086ZM48.7561 112.827L48.4808 112.582V112.336L48.7561 112.827ZM54.7926 99.5742L49.2846 112.579L48.4931 112.334L54.0012 99.3285L54.7926 99.5742ZM69.2178 85.1109L54.5272 99.8198L53.9987 99.3262L68.6894 84.6172L69.4808 84.8629L69.2178 85.1109ZM68.6894 84.6172L69.4808 83.8893V84.8629L68.6894 84.6172ZM68.6894 105.45V84.8652L69.4808 84.8629V105.45H68.6894ZM63.1813 118.207L68.6894 105.225L69.4808 105.45L63.9728 118.455L63.4443 118.68L63.1813 118.207ZM63.9728 118.455L63.7098 118.701H63.4566L63.9728 118.455ZM59.7723 116.235L63.7098 117.962L63.4468 118.701L59.5093 116.974L59.2463 116.728L59.7723 116.235ZM59.5093 116.974H59.2463V116.728L59.5093 116.974ZM58.7178 110.359L60.0377 116.726L59.2463 116.728L57.9387 110.359L58.1919 110.113L58.7178 110.359ZM58.2017 110.113L58.7178 109.62V110.359L58.2017 110.113Z" fill="#FFDEB3"/>
<path d="M113.978 95.4455L110.273 90.1475L110.806 89.6637L114.789 94.9616V95.2024L113.978 95.4455ZM112.393 98.8078L113.98 94.9616L114.779 95.2024L113.192 99.0487L112.658 99.2895L112.393 98.8078ZM113.192 99.0487L112.926 99.5325L112.661 99.2917L113.192 99.0487ZM99.6904 93.5324L112.926 98.5648L112.661 99.2917L99.1597 94.2571V94.0163L99.6904 93.5324ZM84.602 79.3447L99.6904 93.5099L99.1572 93.9938L84.0688 80.0694L84.3341 79.3447H84.602ZM84.0688 80.0694L83.2826 79.3447H84.3341L84.0688 80.0694ZM105.514 80.0694H84.3341V79.3447H105.514H105.779L105.514 80.0694ZM118.484 85.356L105.248 80.0694L105.779 79.3447L119.017 84.6313L119.283 85.1152L118.484 85.356ZM119.015 84.6313H119.28V85.1152L119.015 84.6313ZM116.631 88.4776L118.484 84.8721L119.283 85.1152L117.43 88.9592H117.165L116.631 88.4776ZM110.541 89.4454L117.165 88.2368V88.9592L110.541 90.4131L110.275 90.1498L110.541 89.4454ZM110.273 90.1475L109.752 89.6637L110.538 89.4431L110.273 90.1475Z" fill="#FFDEB3"/>
<path d="M114.787 52.1408L110.804 57.1844L110.271 56.9436L113.976 51.6569H114.774V52.1408H114.787ZM114.787 51.6569V51.8977V52.1408V51.6569ZM113.19 47.8106L114.787 51.6569L113.978 51.8977L112.391 48.0514L112.656 47.5676L113.19 47.8106ZM112.656 47.5676L112.922 47.5698L113.187 47.8106L112.656 47.5676ZM99.1562 52.8565L112.656 47.5676L112.912 48.2945L99.6893 53.5699L99.1562 52.8565ZM84.0687 67.0331L99.1562 52.8678L99.6893 53.5812L84.6019 67.5147L84.3366 67.7466L84.0687 67.0331ZM84.3341 67.7578H83.2802L84.0687 67.0331L84.3341 67.7578ZM105.512 67.7578H84.3341V67.0331L105.512 66.7923L105.777 67.517L105.512 67.7578ZM119.012 62.4711L105.78 67.5147L105.244 67.0309L118.479 61.7442L119.278 61.985L119.012 62.4711ZM119.28 61.9872V62.2281L119.015 62.4689L119.28 61.9872ZM117.428 58.1409L119.28 61.9872L118.482 62.2281L116.629 58.393L117.162 57.8979L117.428 58.1409ZM117.16 57.9001H117.425L117.428 58.1409L117.16 57.9001ZM110.539 56.7028L117.162 57.8979V58.6248L110.539 57.4162L110.273 56.9436L110.539 56.7028ZM110.539 57.4162H109.753L110.273 56.9436L110.539 57.4162Z" fill="#FFDEB3"/>
<path d="M34.3574 94.9616L37.9851 89.6637L38.767 90.1475L35.1393 95.4455L34.3574 95.2047V94.9616ZM35.9115 99.0487L34.3574 95.2047L35.1393 94.9616L36.6933 98.8079L36.4335 99.2918L35.9115 99.0487ZM36.4335 99.2918L36.181 99.5326L35.909 99.0487L36.4335 99.2918ZM49.4025 94.2572L36.4432 99.2895L36.1834 98.5648L49.1548 93.5324L49.6647 94.0163L49.4025 94.2572ZM49.6647 93.9938V94.2346H49.4049L49.6647 93.9938ZM64.4379 80.0693L49.6647 94.0163L49.1427 93.5302L63.9158 79.3423H64.1756L64.4379 80.0693ZM64.1756 79.3423L64.9575 79.3446L64.4379 80.0693L64.1756 79.3423ZM43.4389 79.3446L64.1756 79.3423V80.0693H43.4389L43.179 79.3446H43.4389ZM30.2198 84.6313L43.179 79.3446L43.4389 80.0693L30.4796 85.3447L29.9575 85.1129L30.2198 84.6313ZM29.9575 85.1129V84.6313H30.2198L29.9575 85.1129ZM31.5116 88.9615L29.9575 85.1129L30.7394 84.8744L32.2934 88.4798L31.7714 88.9637L31.5116 88.9615ZM38.2571 90.4109L31.7714 88.9592L32.0312 88.2345L38.5169 89.4431L38.767 90.1475L38.2571 90.4109ZM38.5193 89.4453L39.0414 89.6659L38.7816 90.1498L38.5193 89.4453Z" fill="#FFDEB3"/>
<path d="M35.1389 51.657L38.7664 56.9437L37.9846 57.1755L34.3571 52.1432V51.6593H35.1389V51.657ZM34.3571 52.1432V51.9001V51.6593V52.1432ZM36.6929 48.0538L35.1389 51.9001L34.3692 51.6593L35.9232 47.813L36.4452 47.5722L36.6929 48.0538ZM35.911 47.8108L36.183 47.5699H36.4331L35.911 47.8108ZM49.1414 53.5813L36.183 48.2946L36.4331 47.5699L49.4036 52.8679H49.6634L49.1414 53.5813ZM63.9135 67.5148L49.1535 53.5813L49.661 52.8566L64.4355 67.0331L64.1757 67.7466L63.9135 67.5148ZM64.4355 67.0331L64.9575 67.7578H64.1757L64.4355 67.0331ZM43.4379 66.7901L64.1733 67.0309V67.7556H43.4379L43.1781 67.5148L43.4379 66.7901ZM43.4379 67.7578H43.1781V67.517L43.4379 67.7578ZM30.4795 61.7465L43.4379 67.0331L43.1781 67.517L30.2198 62.4734L29.96 61.9895L30.4795 61.7465ZM30.2198 62.4734L29.96 62.2304V61.9895L30.2198 62.4734ZM32.2933 58.3953L30.7393 62.2304L29.9575 61.9895L31.5115 58.1433L31.7713 57.9024L32.2933 58.3953ZM38.5187 57.4163L32.0335 58.6249L31.7737 57.9002L38.2589 56.7029L38.781 56.9437L38.5187 57.4163ZM38.7664 56.9437L39.0262 57.4163H38.5042L38.7664 56.9437Z" fill="#FFDEB3"/>
</svg>
